Land_normalized_Motion_pl07
version=1
nRows=23
nColumns=43
inDegrees=yes
endheader
time		pelvis_tilt		pelvis_list		pelvis_rotation		pelvis_tx		pelvis_ty		pelvis_tz		hip_flexion_r		hip_adduction_r		hip_rotation_r		knee_angle_r		ankle_angle_r		subtalar_angle_r		mtp_angle_r		hip_flexion_l		hip_adduction_l		hip_rotation_l		knee_angle_l		ankle_angle_l		subtalar_angle_l		mtp_angle_l		lumbar_extension		lumbar_bending		lumbar_rotation		neck_flexion		neck_lateral_bending		neck_rotation		arm_flex_r		arm_add_r		arm_rot_r		elbow_flex_r		pro_sup_r		wrist_flex_r		wrist_dev_r		hand_finger_flex_r		arm_flex_l		arm_add_l		arm_rot_l		elbow_flex_l		pro_sup_l		wrist_flex_l		wrist_dev_l		hand_finger_flex_l		
0.677500		0.708802		7.412362		87.149857		-0.008585		0.659766		0.511296		67.313891		-0.622584		-0.325920		-103.912040		13.814945		-7.326122		8.545583		66.894487		-6.265458		2.115104		-104.931715		8.900373		10.684469		29.181556		-48.298887		-0.909683		6.523355		13.220989		-2.711850		-5.483451		-4.663983		-20.030349		-23.815155		71.895070		101.915806		-2.447511		-25.000000		18.414530		-9.968453		-15.487981		-9.978866		57.292509		118.802093		-38.163573		-15.003794		-3.480945		
0.680455		0.774486		7.555145		87.308961		-0.009201		0.651941		0.509360		68.316604		-0.644459		-0.114974		-105.533824		13.643673		-6.869978		8.786733		67.763578		-6.069946		2.642024		-106.406736		9.153334		11.646909		29.471511		-49.042624		-0.766402		6.469843		13.998630		-2.769518		-5.482776		-2.569095		-20.620843		-23.111082		72.553343		101.864208		-2.477179		-25.000000		18.399350		-7.977497		-15.514050		-9.582851		57.975860		119.168605		-38.217873		-15.334341		-3.387017		
0.683409		0.877806		7.737223		87.527870		-0.009804		0.644338		0.507449		69.194419		-0.739256		-0.012050		-107.068875		13.552809		-6.495059		9.012856		68.561013		-5.853479		3.170135		-107.823493		9.411671		12.314534		29.724736		-49.803796		-0.562491		6.445946		14.705172		-2.768271		-5.559086		-0.470915		-21.234269		-22.397128		73.164602		101.904168		-2.467933		-25.000000		18.391709		-5.919335		-15.627918		-9.017411		58.624053		119.552598		-38.205862		-15.560448		-3.292514		
0.686364		0.990145		7.880285		87.780006		-0.010374		0.636777		0.505625		70.073077		-0.860236		0.086991		-108.546117		13.481020		-5.989839		9.347965		69.391327		-5.644856		3.720658		-109.191074		9.693654		13.246119		30.074439		-50.519432		-0.332359		6.393933		15.419495		-2.784211		-5.620815		1.633740		-21.861006		-21.597393		73.795508		101.931815		-2.511208		-24.988417		18.380775		-3.890441		-15.766844		-8.428992		59.321413		120.027915		-38.320080		-15.788177		-3.187621		
0.689318		1.104290		8.030123		88.046999		-0.010939		0.629329		0.503846		70.891576		-0.995155		0.212499		-109.966348		13.500343		-5.318081		9.854088		70.203690		-5.441891		4.277968		-110.517640		9.982620		14.346322		30.560878		-51.222415		-0.087257		6.313095		16.082111		-2.807006		-5.683126		3.780482		-22.503741		-20.707396		74.399298		102.002391		-2.587659		-24.994209		18.429960		-1.874329		-15.947056		-7.787252		60.028751		120.633475		-38.582250		-15.963984		-3.052055		
0.692273		1.195271		8.244684		88.332666		-0.011522		0.622093		0.502071		71.585380		-1.191453		0.349052		-111.340645		13.590315		-4.526818		10.962334		70.924022		-5.219609		4.800363		-111.802162		10.229160		15.484077		31.536348		-51.958249		0.141905		6.190627		16.668717		-2.724743		-5.688116		5.987671		-23.161606		-19.701916		74.926443		102.057831		-2.812580		-25.000000		18.688278		0.199391		-16.136018		-7.116444		60.667908		121.505354		-39.153592		-15.907267		-2.699770		
0.695227		1.256462		8.477224		88.602677		-0.012146		0.615000		0.500340		72.229428		-1.328883		0.504203		-112.656729		13.631786		-4.350138		11.205224		71.608731		-4.933156		5.175485		-113.074385		10.398719		15.671401		31.766792		-52.697206		0.335167		6.181774		17.205320		-2.626839		-5.811497		8.065164		-23.832346		-18.928837		75.554831		102.222846		-2.645678		-24.929568		18.817223		2.323937		-16.395040		-6.327706		61.362924		121.958681		-38.968667		-16.201554		-2.539251		
0.698182		1.272577		8.698901		88.846100		-0.012787		0.608020		0.498586		72.853284		-1.502537		0.723316		-113.939738		13.693141		-3.884251		12.180560		72.280390		-4.690869		5.468729		-114.303348		10.528301		16.102377		32.603248		-53.405141		0.489355		6.111541		17.745000		-2.598723		-5.897175		10.233395		-24.507237		-18.013386		76.093124		102.378093		-2.626035		-24.917529		19.240882		4.454812		-16.684936		-5.445066		61.995510		122.660375		-39.266499		-16.252302		-2.264633		
0.701136		1.252798		8.935451		89.061217		-0.013435		0.601144		0.496795		73.436443		-1.675597		1.010615		-115.191243		13.738732		-3.203341		14.407782		72.910318		-4.464026		5.715276		-115.498324		10.572308		16.667017		34.471377		-54.094362		0.600055		5.996395		18.202476		-2.544474		-5.906983		12.475189		-25.160111		-16.985054		76.538205		102.449091		-2.907915		-24.907218		20.136741		6.593964		-17.004864		-4.453353		62.596498		123.741997		-40.214194		-15.895427		-1.684644		
0.704091		1.216197		9.152468		89.253172		-0.014085		0.594354		0.494950		74.017384		-1.816212		1.289150		-116.425052		14.027702		-2.663855		14.620031		73.523159		-4.228889		5.898926		-116.700694		10.838801		17.076941		34.634501		-54.723979		0.694372		5.891834		18.530812		-2.520923		-6.017376		14.725600		-25.792214		-16.025679		76.974026		102.666817		-2.607734		-24.649807		20.233219		8.705800		-17.294979		-3.638681		63.129226		124.128914		-40.202216		-16.350036		-1.720288		
0.707045		1.172969		9.358184		89.417568		-0.014726		0.587719		0.493053		74.579828		-1.966445		1.525535		-117.623572		14.283217		-2.306509		14.792875		74.121264		-4.027425		6.008761		-117.867987		11.073610		17.329892		34.762874		-55.336851		0.758526		5.840566		18.962910		-2.416049		-6.092439		16.961449		-26.388639		-15.135195		77.352555		102.876753		-2.342303		-24.461227		20.293680		10.877515		-17.545449		-2.798290		63.607788		124.493837		-40.094082		-16.695941		-1.730218		
0.710000		1.114586		9.524989		89.551128		-0.015304		0.581127		0.491088		75.182355		-2.094375		1.750014		-118.804302		14.502989		-2.083709		14.922775		74.738365		-3.862141		6.063171		-119.020877		11.312390		17.454574		34.856420		-55.885542		0.787425		5.809206		19.363700		-2.306791		-6.176049		19.190385		-27.012305		-14.200289		77.690023		103.110196		-2.066454		-24.257342		20.327137		13.048187		-17.845427		-1.864862		64.075627		124.880467		-39.887397		-16.982852		-1.713104		
0.712955		1.046493		9.651938		89.636062		-0.015857		0.574547		0.489020		75.841108		-2.205455		2.009092		-119.978926		14.754991		-1.673039		15.140495		75.371863		-3.749011		6.074825		-120.171480		11.584802		17.628104		34.981321		-56.334012		0.794893		5.721565		19.581203		-2.247656		-6.198156		21.525147		-27.567453		-13.110837		77.894989		103.350031		-1.766696		-23.894078		20.279617		15.162123		-18.189615		-0.897210		64.483380		125.247985		-39.892821		-17.108721		-1.808807		
0.715909		0.961225		9.754789		89.682834		-0.016329		0.567962		0.486850		76.534078		-2.294831		2.314712		-121.160816		15.052144		-0.958117		15.573160		76.021409		-3.677660		6.064500		-121.323277		11.868692		17.883392		35.184344		-56.696341		0.775425		5.514424		19.610334		-2.224770		-6.065215		24.005800		-28.028711		-11.812655		77.957827		103.555086		-1.434235		-23.310177		20.049168		17.168777		-18.619427		0.123521		64.875745		125.584432		-40.316030		-16.936071		-2.120146		
0.718864		0.883011		9.806636		89.679346		-0.016665		0.561527		0.484672		77.283155		-2.321052		2.517843		-122.297441		15.170673		-0.915187		15.699277		76.698227		-3.651636		6.038722		-122.434638		12.058799		17.941388		35.261072		-57.067513		0.664102		5.550558		20.016380		-2.050756		-6.121488		26.163790		-28.587725		-10.866918		78.195675		103.798335		-1.167837		-23.112844		20.016931		19.306997		-18.893579		1.017396		65.279716		125.957122		-39.955366		-17.098997		-2.038649		
0.721818		0.783162		9.796979		89.637587		-0.016969		0.555081		0.482476		78.123898		-2.317859		2.758455		-123.422403		15.238026		-0.815767		15.833570		77.425746		-3.659998		5.978485		-123.532040		12.267891		18.027385		35.345204		-57.326841		0.526035		5.544459		20.260519		-1.926890		-6.159453		28.378486		-29.117617		-9.786524		78.347969		104.064142		-0.896186		-22.856926		19.961395		21.404350		-19.184066		1.917689		65.619750		126.323703		-39.635596		-17.165128		-1.977718		
0.724773		0.660026		9.770646		89.573941		-0.017256		0.548619		0.480260		79.016575		-2.309991		3.057449		-124.557017		15.217531		-0.472318		16.555517		78.167612		-3.686766		5.903075		-124.622026		12.457793		18.204213		35.636254		-57.512633		0.399750		5.213295		20.243058		-1.852816		-5.791139		30.964272		-29.494269		-8.060450		78.210291		104.122546		-0.703524		-22.479945		19.225049		23.171954		-19.756864		2.822330		66.241942		126.881911		-40.063785		-16.310747		-2.269529		
0.727727		0.543002		9.697153		89.481282		-0.017422		0.542414		0.478136		79.929617		-2.233717		3.301540		-125.619627		15.209104		-0.476002		16.710584		78.901110		-3.733263		5.823555		-125.641074		12.661762		18.265356		35.731603		-57.708550		0.192490		5.244550		20.585411		-1.688028		-5.828486		33.092771		-29.907291		-7.101719		78.353496		104.339561		-0.461536		-22.324282		19.137214		25.261519		-19.922276		3.562169		66.533760		127.262382		-39.681103		-16.344688		-2.167787		
0.730682		0.425457		9.565455		89.391527		-0.017499		0.536207		0.476062		80.925066		-2.140032		3.531666		-126.675071		15.110958		-0.499798		16.813964		79.687670		-3.800657		5.740875		-126.632437		12.908058		18.333764		35.821356		-57.815395		-0.011120		5.240605		20.750079		-1.564336		-5.862069		35.210305		-30.328125		-6.023023		78.469374		104.571856		-0.236546		-22.173084		19.084575		27.277908		-20.131460		4.270603		66.846218		127.626139		-39.326999		-16.353927		-2.061271		
0.733636		0.326236		9.416320		89.318050		-0.017486		0.530075		0.474036		81.936856		-2.034461		3.724039		-127.709140		14.949569		-0.555019		16.965284		80.476488		-3.880662		5.686040		-127.594381		13.201969		18.420932		35.940938		-57.881601		-0.181715		5.157731		20.806037		-1.472926		-5.809751		37.402738		-30.682539		-4.755191		78.488760		104.755884		-0.088188		-22.018530		18.949941		29.181186		-20.391171		4.910812		67.233036		127.995723		-39.120862		-16.161404		-1.993876		
0.736591		0.271763		9.320250		89.246490		-0.017375		0.524263		0.472116		82.824622		-1.870804		3.861852		-128.669758		14.802358		-0.732036		17.217286		81.158087		-3.952973		5.713494		-128.496115		13.531516		18.558938		36.107368		-58.019506		-0.308005		5.004184		20.974554		-1.394720		-5.603930		39.767543		-30.844645		-3.338340		78.316273		104.788527		-0.149201		-21.855667		18.687310		30.980272		-20.652320		5.387658		67.720640		128.370744		-39.077392		-15.605354		-1.923955		
0.739545		0.240090		9.250771		89.191474		-0.017124		0.518723		0.470249		83.609164		-1.691268		3.958550		-129.569861		14.829745		-0.860723		17.371990		81.788336		-4.034856		5.769110		-129.348424		13.814351		18.635198		36.215653		-58.220976		-0.460540		4.986667		21.353011		-1.205271		-5.537242		41.876006		-31.000484		-2.327605		78.305298		104.891969		-0.100350		-21.709463		18.587434		32.896508		-20.771449		5.837713		68.101298		128.668099		-38.852838		-15.386509		-1.809800		
0.742500		0.226106		9.156161		89.167126		-0.016848		0.513282		0.468434		84.373458		-1.536702		4.015318		-130.440948		14.927598		-0.956136		17.437421		82.422658		-4.096632		5.842701		-130.171476		14.147477		18.688654		36.289463		-58.392536		-0.581632		5.048767		21.681030		-1.006814		-5.579642		43.866784		-31.254504		-1.400448		78.404324		105.095161		0.086302		-21.527307		18.621934		34.844818		-20.834285		6.329483		68.398374		128.879020		-38.480077		-15.361671		-1.660691		
